<svg width="79.883" height="84.766" viewBox="0 0 79.883 84.766" xmlns="http://www.w3.org/2000/svg"><g id="svgGroup" stroke-linecap="round" fill-rule="evenodd" font-size="9pt" stroke="#e7f0f3" stroke-width="0.25mm" fill="#e7f0f3" style="stroke:#e7f0f3;stroke-width:0.25mm;fill:#e7f0f3"><path d="M 30.859 9.766 L 74.024 9.766 A 8.249 8.249 0 0 0 75.765 9.593 Q 76.913 9.345 77.776 8.742 A 4.867 4.867 0 0 0 78.32 8.301 A 5.231 5.231 0 0 0 79.359 6.981 A 4.336 4.336 0 0 0 79.883 4.883 Q 79.883 2.93 78.32 1.465 A 5.195 5.195 0 0 0 76.016 0.233 Q 75.113 0 74.024 0 L 30.859 0 A 8.249 8.249 0 0 0 29.118 0.173 Q 27.971 0.421 27.107 1.024 A 4.867 4.867 0 0 0 26.563 1.465 A 5.231 5.231 0 0 0 25.524 2.785 A 4.336 4.336 0 0 0 25 4.883 Q 25 6.836 26.563 8.301 A 5.195 5.195 0 0 0 28.867 9.533 Q 29.77 9.766 30.859 9.766 Z M 18.359 84.766 L 49.024 84.766 A 8.249 8.249 0 0 0 50.765 84.593 Q 51.913 84.345 52.776 83.742 A 4.867 4.867 0 0 0 53.32 83.301 A 5.231 5.231 0 0 0 54.359 81.981 A 4.336 4.336 0 0 0 54.883 79.883 Q 54.883 77.93 53.32 76.465 A 5.195 5.195 0 0 0 51.016 75.233 Q 50.113 75 49.024 75 L 18.359 75 A 8.249 8.249 0 0 0 16.618 75.173 Q 15.471 75.421 14.607 76.024 A 4.867 4.867 0 0 0 14.063 76.465 A 5.231 5.231 0 0 0 13.024 77.785 A 4.336 4.336 0 0 0 12.5 79.883 Q 12.5 81.836 14.063 83.301 A 5.195 5.195 0 0 0 16.367 84.533 Q 17.27 84.766 18.359 84.766 Z M 43.359 22.266 L 61.524 22.266 A 8.249 8.249 0 0 0 63.265 22.093 Q 64.413 21.845 65.276 21.242 A 4.867 4.867 0 0 0 65.82 20.801 A 5.231 5.231 0 0 0 66.859 19.481 A 4.336 4.336 0 0 0 67.383 17.383 Q 67.383 15.43 65.82 13.965 A 5.195 5.195 0 0 0 63.516 12.733 Q 62.613 12.5 61.524 12.5 L 43.359 12.5 A 8.249 8.249 0 0 0 41.618 12.673 Q 40.471 12.921 39.607 13.524 A 4.867 4.867 0 0 0 39.063 13.965 A 5.231 5.231 0 0 0 38.024 15.285 A 4.336 4.336 0 0 0 37.5 17.383 Q 37.5 19.336 39.063 20.801 A 5.195 5.195 0 0 0 41.367 22.033 Q 42.27 22.266 43.359 22.266 Z M 43.359 59.766 L 61.524 59.766 A 8.249 8.249 0 0 0 63.265 59.593 Q 64.413 59.345 65.276 58.742 A 4.867 4.867 0 0 0 65.82 58.301 A 5.231 5.231 0 0 0 66.859 56.981 A 4.336 4.336 0 0 0 67.383 54.883 Q 67.383 52.93 65.82 51.465 A 5.195 5.195 0 0 0 63.516 50.233 Q 62.613 50 61.524 50 L 43.359 50 A 8.249 8.249 0 0 0 41.618 50.173 Q 40.471 50.421 39.607 51.024 A 4.867 4.867 0 0 0 39.063 51.465 A 5.231 5.231 0 0 0 38.024 52.785 A 4.336 4.336 0 0 0 37.5 54.883 Q 37.5 56.836 39.063 58.301 A 5.195 5.195 0 0 0 41.367 59.533 Q 42.27 59.766 43.359 59.766 Z M 43.359 47.266 L 61.524 47.266 A 8.249 8.249 0 0 0 63.265 47.093 Q 64.413 46.845 65.276 46.242 A 4.867 4.867 0 0 0 65.82 45.801 A 5.231 5.231 0 0 0 66.859 44.481 A 4.336 4.336 0 0 0 67.383 42.383 Q 67.383 40.43 65.82 38.965 A 5.195 5.195 0 0 0 63.516 37.733 Q 62.613 37.5 61.524 37.5 L 43.359 37.5 A 8.249 8.249 0 0 0 41.618 37.673 Q 40.471 37.921 39.607 38.524 A 4.867 4.867 0 0 0 39.063 38.965 A 5.231 5.231 0 0 0 38.024 40.285 A 4.336 4.336 0 0 0 37.5 42.383 Q 37.5 44.336 39.063 45.801 A 5.195 5.195 0 0 0 41.367 47.033 Q 42.27 47.266 43.359 47.266 Z M 43.359 34.766 L 61.524 34.766 A 8.249 8.249 0 0 0 63.265 34.593 Q 64.413 34.345 65.276 33.742 A 4.867 4.867 0 0 0 65.82 33.301 A 5.231 5.231 0 0 0 66.859 31.981 A 4.336 4.336 0 0 0 67.383 29.883 Q 67.383 27.93 65.82 26.465 A 5.195 5.195 0 0 0 63.516 25.233 Q 62.613 25 61.524 25 L 43.359 25 A 8.249 8.249 0 0 0 41.618 25.173 Q 40.471 25.421 39.607 26.024 A 4.867 4.867 0 0 0 39.063 26.465 A 5.231 5.231 0 0 0 38.024 27.785 A 4.336 4.336 0 0 0 37.5 29.883 Q 37.5 31.836 39.063 33.301 A 5.195 5.195 0 0 0 41.367 34.533 Q 42.27 34.766 43.359 34.766 Z M 5.859 72.266 L 24.024 72.266 A 8.249 8.249 0 0 0 25.765 72.093 Q 26.913 71.845 27.776 71.242 A 4.867 4.867 0 0 0 28.32 70.801 A 5.231 5.231 0 0 0 29.359 69.481 A 4.336 4.336 0 0 0 29.883 67.383 Q 29.883 65.43 28.32 63.965 A 5.195 5.195 0 0 0 26.016 62.733 Q 25.113 62.5 24.024 62.5 L 5.859 62.5 A 8.249 8.249 0 0 0 4.118 62.673 Q 2.971 62.921 2.107 63.524 A 4.867 4.867 0 0 0 1.563 63.965 A 5.231 5.231 0 0 0 0.524 65.285 A 4.336 4.336 0 0 0 0 67.383 Q 0 69.336 1.563 70.801 A 5.195 5.195 0 0 0 3.867 72.033 Q 4.77 72.266 5.859 72.266 Z M 43.359 72.266 L 61.524 72.266 A 8.249 8.249 0 0 0 63.265 72.093 Q 64.413 71.845 65.276 71.242 A 4.867 4.867 0 0 0 65.82 70.801 A 5.231 5.231 0 0 0 66.859 69.481 A 4.336 4.336 0 0 0 67.383 67.383 Q 67.383 65.43 65.82 63.965 A 5.195 5.195 0 0 0 63.516 62.733 Q 62.613 62.5 61.524 62.5 L 43.359 62.5 A 8.249 8.249 0 0 0 41.618 62.673 Q 40.471 62.921 39.607 63.524 A 4.867 4.867 0 0 0 39.063 63.965 A 5.231 5.231 0 0 0 38.024 65.285 A 4.336 4.336 0 0 0 37.5 67.383 Q 37.5 69.336 39.063 70.801 A 5.195 5.195 0 0 0 41.367 72.033 Q 42.27 72.266 43.359 72.266 Z" vector-effect="non-scaling-stroke"/></g></svg>