<svg width="679.883" height="84.766" viewBox="0 0 679.883 84.766" xmlns="http://www.w3.org/2000/svg"><g id="svgGroup" stroke-linecap="round" fill-rule="evenodd" font-size="9pt" stroke="#000" stroke-width="0.25mm" fill="#000" style="stroke:#000;stroke-width:0.25mm;fill:#000"><path d="M 505.859 9.766 L 574.024 9.766 A 8.249 8.249 0 0 0 575.765 9.593 Q 576.913 9.345 577.776 8.742 A 4.867 4.867 0 0 0 578.32 8.301 A 5.231 5.231 0 0 0 579.359 6.981 A 4.336 4.336 0 0 0 579.883 4.883 Q 579.883 2.93 578.32 1.465 A 5.195 5.195 0 0 0 576.016 0.233 Q 575.113 0 574.024 0 L 505.859 0 A 8.249 8.249 0 0 0 504.118 0.173 Q 502.971 0.421 502.107 1.024 A 4.867 4.867 0 0 0 501.563 1.465 A 5.231 5.231 0 0 0 500.524 2.785 A 4.336 4.336 0 0 0 500 4.883 Q 500 6.836 501.563 8.301 A 5.195 5.195 0 0 0 503.867 9.533 Q 504.77 9.766 505.859 9.766 Z M 505.859 84.766 L 574.024 84.766 A 8.249 8.249 0 0 0 575.765 84.593 Q 576.913 84.345 577.776 83.742 A 4.867 4.867 0 0 0 578.32 83.301 A 5.231 5.231 0 0 0 579.359 81.981 A 4.336 4.336 0 0 0 579.883 79.883 Q 579.883 77.93 578.32 76.465 A 5.195 5.195 0 0 0 576.016 75.233 Q 575.113 75 574.024 75 L 505.859 75 A 8.249 8.249 0 0 0 504.118 75.173 Q 502.971 75.421 502.107 76.024 A 4.867 4.867 0 0 0 501.563 76.465 A 5.231 5.231 0 0 0 500.524 77.785 A 4.336 4.336 0 0 0 500 79.883 Q 500 81.836 501.563 83.301 A 5.195 5.195 0 0 0 503.867 84.533 Q 504.77 84.766 505.859 84.766 Z M 205.859 47.266 L 274.024 47.266 A 8.249 8.249 0 0 0 275.765 47.093 Q 276.913 46.845 277.776 46.242 A 4.867 4.867 0 0 0 278.32 45.801 A 5.231 5.231 0 0 0 279.359 44.481 A 4.336 4.336 0 0 0 279.883 42.383 Q 279.883 40.43 278.32 38.965 A 5.195 5.195 0 0 0 276.016 37.733 Q 275.113 37.5 274.024 37.5 L 205.859 37.5 A 8.249 8.249 0 0 0 204.118 37.673 Q 202.971 37.921 202.107 38.524 A 4.867 4.867 0 0 0 201.563 38.965 A 5.231 5.231 0 0 0 200.524 40.285 A 4.336 4.336 0 0 0 200 42.383 Q 200 44.336 201.563 45.801 A 5.195 5.195 0 0 0 203.867 47.033 Q 204.77 47.266 205.859 47.266 Z M 305.859 34.766 L 374.024 34.766 A 8.249 8.249 0 0 0 375.765 34.593 Q 376.913 34.345 377.776 33.742 A 4.867 4.867 0 0 0 378.32 33.301 A 5.231 5.231 0 0 0 379.359 31.981 A 4.336 4.336 0 0 0 379.883 29.883 Q 379.883 27.93 378.32 26.465 A 5.195 5.195 0 0 0 376.016 25.233 Q 375.113 25 374.024 25 L 305.859 25 A 8.249 8.249 0 0 0 304.118 25.173 Q 302.971 25.421 302.107 26.024 A 4.867 4.867 0 0 0 301.563 26.465 A 5.231 5.231 0 0 0 300.524 27.785 A 4.336 4.336 0 0 0 300 29.883 Q 300 31.836 301.563 33.301 A 5.195 5.195 0 0 0 303.867 34.533 Q 304.77 34.766 305.859 34.766 Z M 30.859 9.766 L 74.024 9.766 A 8.249 8.249 0 0 0 75.765 9.593 Q 76.913 9.345 77.776 8.742 A 4.867 4.867 0 0 0 78.32 8.301 A 5.231 5.231 0 0 0 79.359 6.981 A 4.336 4.336 0 0 0 79.883 4.883 Q 79.883 2.93 78.32 1.465 A 5.195 5.195 0 0 0 76.016 0.233 Q 75.113 0 74.024 0 L 30.859 0 A 8.249 8.249 0 0 0 29.118 0.173 Q 27.971 0.421 27.107 1.024 A 4.867 4.867 0 0 0 26.563 1.465 A 5.231 5.231 0 0 0 25.524 2.785 A 4.336 4.336 0 0 0 25 4.883 Q 25 6.836 26.563 8.301 A 5.195 5.195 0 0 0 28.867 9.533 Q 29.77 9.766 30.859 9.766 Z M 118.359 9.766 L 161.524 9.766 A 8.249 8.249 0 0 0 163.265 9.593 Q 164.413 9.345 165.276 8.742 A 4.867 4.867 0 0 0 165.82 8.301 A 5.231 5.231 0 0 0 166.859 6.981 A 4.336 4.336 0 0 0 167.383 4.883 Q 167.383 2.93 165.82 1.465 A 5.195 5.195 0 0 0 163.516 0.233 Q 162.613 0 161.524 0 L 118.359 0 A 8.249 8.249 0 0 0 116.618 0.173 Q 115.471 0.421 114.607 1.024 A 4.867 4.867 0 0 0 114.063 1.465 A 5.231 5.231 0 0 0 113.024 2.785 A 4.336 4.336 0 0 0 112.5 4.883 Q 112.5 6.836 114.063 8.301 A 5.195 5.195 0 0 0 116.367 9.533 Q 117.27 9.766 118.359 9.766 Z M 505.859 47.266 L 549.024 47.266 A 8.249 8.249 0 0 0 550.765 47.093 Q 551.913 46.845 552.776 46.242 A 4.867 4.867 0 0 0 553.32 45.801 A 5.231 5.231 0 0 0 554.359 44.481 A 4.336 4.336 0 0 0 554.883 42.383 Q 554.883 40.43 553.32 38.965 A 5.195 5.195 0 0 0 551.016 37.733 Q 550.113 37.5 549.024 37.5 L 505.859 37.5 A 8.249 8.249 0 0 0 504.118 37.673 Q 502.971 37.921 502.107 38.524 A 4.867 4.867 0 0 0 501.563 38.965 A 5.231 5.231 0 0 0 500.524 40.285 A 4.336 4.336 0 0 0 500 42.383 Q 500 44.336 501.563 45.801 A 5.195 5.195 0 0 0 503.867 47.033 Q 504.77 47.266 505.859 47.266 Z M 618.359 34.766 L 661.524 34.766 A 8.249 8.249 0 0 0 663.265 34.593 Q 664.413 34.345 665.276 33.742 A 4.867 4.867 0 0 0 665.82 33.301 A 5.231 5.231 0 0 0 666.859 31.981 A 4.336 4.336 0 0 0 667.383 29.883 Q 667.383 27.93 665.82 26.465 A 5.195 5.195 0 0 0 663.516 25.233 Q 662.613 25 661.524 25 L 618.359 25 A 8.249 8.249 0 0 0 616.618 25.173 Q 615.471 25.421 614.607 26.024 A 4.867 4.867 0 0 0 614.063 26.465 A 5.231 5.231 0 0 0 613.024 27.785 A 4.336 4.336 0 0 0 612.5 29.883 Q 612.5 31.836 614.063 33.301 A 5.195 5.195 0 0 0 616.367 34.533 Q 617.27 34.766 618.359 34.766 Z M 118.359 84.766 L 161.524 84.766 A 8.249 8.249 0 0 0 163.265 84.593 Q 164.413 84.345 165.276 83.742 A 4.867 4.867 0 0 0 165.82 83.301 A 5.231 5.231 0 0 0 166.859 81.981 A 4.336 4.336 0 0 0 167.383 79.883 Q 167.383 77.93 165.82 76.465 A 5.195 5.195 0 0 0 163.516 75.233 Q 162.613 75 161.524 75 L 118.359 75 A 8.249 8.249 0 0 0 116.618 75.173 Q 115.471 75.421 114.607 76.024 A 4.867 4.867 0 0 0 114.063 76.465 A 5.231 5.231 0 0 0 113.024 77.785 A 4.336 4.336 0 0 0 112.5 79.883 Q 112.5 81.836 114.063 83.301 A 5.195 5.195 0 0 0 116.367 84.533 Q 117.27 84.766 118.359 84.766 Z M 405.859 84.766 L 449.024 84.766 A 8.249 8.249 0 0 0 450.765 84.593 Q 451.913 84.345 452.776 83.742 A 4.867 4.867 0 0 0 453.32 83.301 A 5.231 5.231 0 0 0 454.359 81.981 A 4.336 4.336 0 0 0 454.883 79.883 Q 454.883 77.93 453.32 76.465 A 5.195 5.195 0 0 0 451.016 75.233 Q 450.113 75 449.024 75 L 405.859 75 A 8.249 8.249 0 0 0 404.118 75.173 Q 402.971 75.421 402.107 76.024 A 4.867 4.867 0 0 0 401.563 76.465 A 5.231 5.231 0 0 0 400.524 77.785 A 4.336 4.336 0 0 0 400 79.883 Q 400 81.836 401.563 83.301 A 5.195 5.195 0 0 0 403.867 84.533 Q 404.77 84.766 405.859 84.766 Z M 405.859 9.766 L 449.024 9.766 A 8.249 8.249 0 0 0 450.765 9.593 Q 451.913 9.345 452.776 8.742 A 4.867 4.867 0 0 0 453.32 8.301 A 5.231 5.231 0 0 0 454.359 6.981 A 4.336 4.336 0 0 0 454.883 4.883 Q 454.883 2.93 453.32 1.465 A 5.195 5.195 0 0 0 451.016 0.233 Q 450.113 0 449.024 0 L 405.859 0 A 8.249 8.249 0 0 0 404.118 0.173 Q 402.971 0.421 402.107 1.024 A 4.867 4.867 0 0 0 401.563 1.465 A 5.231 5.231 0 0 0 400.524 2.785 A 4.336 4.336 0 0 0 400 4.883 Q 400 6.836 401.563 8.301 A 5.195 5.195 0 0 0 403.867 9.533 Q 404.77 9.766 405.859 9.766 Z M 618.359 59.766 L 661.524 59.766 A 8.249 8.249 0 0 0 663.265 59.593 Q 664.413 59.345 665.276 58.742 A 4.867 4.867 0 0 0 665.82 58.301 A 5.231 5.231 0 0 0 666.859 56.981 A 4.336 4.336 0 0 0 667.383 54.883 Q 667.383 52.93 665.82 51.465 A 5.195 5.195 0 0 0 663.516 50.233 Q 662.613 50 661.524 50 L 618.359 50 A 8.249 8.249 0 0 0 616.618 50.173 Q 615.471 50.421 614.607 51.024 A 4.867 4.867 0 0 0 614.063 51.465 A 5.231 5.231 0 0 0 613.024 52.785 A 4.336 4.336 0 0 0 612.5 54.883 Q 612.5 56.836 614.063 58.301 A 5.195 5.195 0 0 0 616.367 59.533 Q 617.27 59.766 618.359 59.766 Z M 18.359 84.766 L 49.024 84.766 A 8.249 8.249 0 0 0 50.765 84.593 Q 51.913 84.345 52.776 83.742 A 4.867 4.867 0 0 0 53.32 83.301 A 5.231 5.231 0 0 0 54.359 81.981 A 4.336 4.336 0 0 0 54.883 79.883 Q 54.883 77.93 53.32 76.465 A 5.195 5.195 0 0 0 51.016 75.233 Q 50.113 75 49.024 75 L 18.359 75 A 8.249 8.249 0 0 0 16.618 75.173 Q 15.471 75.421 14.607 76.024 A 4.867 4.867 0 0 0 14.063 76.465 A 5.231 5.231 0 0 0 13.024 77.785 A 4.336 4.336 0 0 0 12.5 79.883 Q 12.5 81.836 14.063 83.301 A 5.195 5.195 0 0 0 16.367 84.533 Q 17.27 84.766 18.359 84.766 Z M 305.859 22.266 L 336.524 22.266 A 8.249 8.249 0 0 0 338.265 22.093 Q 339.413 21.845 340.276 21.242 A 4.867 4.867 0 0 0 340.82 20.801 A 5.231 5.231 0 0 0 341.859 19.481 A 4.336 4.336 0 0 0 342.383 17.383 Q 342.383 15.43 340.82 13.965 A 5.195 5.195 0 0 0 338.516 12.733 Q 337.613 12.5 336.524 12.5 L 305.859 12.5 A 8.249 8.249 0 0 0 304.118 12.673 Q 302.971 12.921 302.107 13.524 A 4.867 4.867 0 0 0 301.563 13.965 A 5.231 5.231 0 0 0 300.524 15.285 A 4.336 4.336 0 0 0 300 17.383 Q 300 19.336 301.563 20.801 A 5.195 5.195 0 0 0 303.867 22.033 Q 304.77 22.266 305.859 22.266 Z M 343.359 47.266 L 374.024 47.266 A 8.249 8.249 0 0 0 375.765 47.093 Q 376.913 46.845 377.776 46.242 A 4.867 4.867 0 0 0 378.32 45.801 A 5.231 5.231 0 0 0 379.359 44.481 A 4.336 4.336 0 0 0 379.883 42.383 Q 379.883 40.43 378.32 38.965 A 5.195 5.195 0 0 0 376.016 37.733 Q 375.113 37.5 374.024 37.5 L 343.359 37.5 A 8.249 8.249 0 0 0 341.618 37.673 Q 340.471 37.921 339.607 38.524 A 4.867 4.867 0 0 0 339.063 38.965 A 5.231 5.231 0 0 0 338.024 40.285 A 4.336 4.336 0 0 0 337.5 42.383 Q 337.5 44.336 339.063 45.801 A 5.195 5.195 0 0 0 341.367 47.033 Q 342.27 47.266 343.359 47.266 Z M 105.859 22.266 L 124.024 22.266 A 8.249 8.249 0 0 0 125.765 22.093 Q 126.913 21.845 127.776 21.242 A 4.867 4.867 0 0 0 128.32 20.801 A 5.231 5.231 0 0 0 129.359 19.481 A 4.336 4.336 0 0 0 129.883 17.383 Q 129.883 15.43 128.32 13.965 A 5.195 5.195 0 0 0 126.016 12.733 Q 125.113 12.5 124.024 12.5 L 105.859 12.5 A 8.249 8.249 0 0 0 104.118 12.673 Q 102.971 12.921 102.107 13.524 A 4.867 4.867 0 0 0 101.563 13.965 A 5.231 5.231 0 0 0 100.524 15.285 A 4.336 4.336 0 0 0 100 17.383 Q 100 19.336 101.563 20.801 A 5.195 5.195 0 0 0 103.867 22.033 Q 104.77 22.266 105.859 22.266 Z M 205.859 22.266 L 224.024 22.266 A 8.249 8.249 0 0 0 225.765 22.093 Q 226.913 21.845 227.776 21.242 A 4.867 4.867 0 0 0 228.32 20.801 A 5.231 5.231 0 0 0 229.359 19.481 A 4.336 4.336 0 0 0 229.883 17.383 Q 229.883 15.43 228.32 13.965 A 5.195 5.195 0 0 0 226.016 12.733 Q 225.113 12.5 224.024 12.5 L 205.859 12.5 A 8.249 8.249 0 0 0 204.118 12.673 Q 202.971 12.921 202.107 13.524 A 4.867 4.867 0 0 0 201.563 13.965 A 5.231 5.231 0 0 0 200.524 15.285 A 4.336 4.336 0 0 0 200 17.383 Q 200 19.336 201.563 20.801 A 5.195 5.195 0 0 0 203.867 22.033 Q 204.77 22.266 205.859 22.266 Z M 205.859 9.766 L 224.024 9.766 A 8.249 8.249 0 0 0 225.765 9.593 Q 226.913 9.345 227.776 8.742 A 4.867 4.867 0 0 0 228.32 8.301 A 5.231 5.231 0 0 0 229.359 6.981 A 4.336 4.336 0 0 0 229.883 4.883 Q 229.883 2.93 228.32 1.465 A 5.195 5.195 0 0 0 226.016 0.233 Q 225.113 0 224.024 0 L 205.859 0 A 8.249 8.249 0 0 0 204.118 0.173 Q 202.971 0.421 202.107 1.024 A 4.867 4.867 0 0 0 201.563 1.465 A 5.231 5.231 0 0 0 200.524 2.785 A 4.336 4.336 0 0 0 200 4.883 Q 200 6.836 201.563 8.301 A 5.195 5.195 0 0 0 203.867 9.533 Q 204.77 9.766 205.859 9.766 Z M 305.859 9.766 L 324.024 9.766 A 8.249 8.249 0 0 0 325.765 9.593 Q 326.913 9.345 327.776 8.742 A 4.867 4.867 0 0 0 328.32 8.301 A 5.231 5.231 0 0 0 329.359 6.981 A 4.336 4.336 0 0 0 329.883 4.883 Q 329.883 2.93 328.32 1.465 A 5.195 5.195 0 0 0 326.016 0.233 Q 325.113 0 324.024 0 L 305.859 0 A 8.249 8.249 0 0 0 304.118 0.173 Q 302.971 0.421 302.107 1.024 A 4.867 4.867 0 0 0 301.563 1.465 A 5.231 5.231 0 0 0 300.524 2.785 A 4.336 4.336 0 0 0 300 4.883 Q 300 6.836 301.563 8.301 A 5.195 5.195 0 0 0 303.867 9.533 Q 304.77 9.766 305.859 9.766 Z M 405.859 22.266 L 424.024 22.266 A 8.249 8.249 0 0 0 425.765 22.093 Q 426.913 21.845 427.776 21.242 A 4.867 4.867 0 0 0 428.32 20.801 A 5.231 5.231 0 0 0 429.359 19.481 A 4.336 4.336 0 0 0 429.883 17.383 Q 429.883 15.43 428.32 13.965 A 5.195 5.195 0 0 0 426.016 12.733 Q 425.113 12.5 424.024 12.5 L 405.859 12.5 A 8.249 8.249 0 0 0 404.118 12.673 Q 402.971 12.921 402.107 13.524 A 4.867 4.867 0 0 0 401.563 13.965 A 5.231 5.231 0 0 0 400.524 15.285 A 4.336 4.336 0 0 0 400 17.383 Q 400 19.336 401.563 20.801 A 5.195 5.195 0 0 0 403.867 22.033 Q 404.77 22.266 405.859 22.266 Z M 505.859 22.266 L 524.024 22.266 A 8.249 8.249 0 0 0 525.765 22.093 Q 526.913 21.845 527.776 21.242 A 4.867 4.867 0 0 0 528.32 20.801 A 5.231 5.231 0 0 0 529.359 19.481 A 4.336 4.336 0 0 0 529.883 17.383 Q 529.883 15.43 528.32 13.965 A 5.195 5.195 0 0 0 526.016 12.733 Q 525.113 12.5 524.024 12.5 L 505.859 12.5 A 8.249 8.249 0 0 0 504.118 12.673 Q 502.971 12.921 502.107 13.524 A 4.867 4.867 0 0 0 501.563 13.965 A 5.231 5.231 0 0 0 500.524 15.285 A 4.336 4.336 0 0 0 500 17.383 Q 500 19.336 501.563 20.801 A 5.195 5.195 0 0 0 503.867 22.033 Q 504.77 22.266 505.859 22.266 Z M 605.859 22.266 L 624.024 22.266 A 8.249 8.249 0 0 0 625.765 22.093 Q 626.913 21.845 627.776 21.242 A 4.867 4.867 0 0 0 628.32 20.801 A 5.231 5.231 0 0 0 629.359 19.481 A 4.336 4.336 0 0 0 629.883 17.383 Q 629.883 15.43 628.32 13.965 A 5.195 5.195 0 0 0 626.016 12.733 Q 625.113 12.5 624.024 12.5 L 605.859 12.5 A 8.249 8.249 0 0 0 604.118 12.673 Q 602.971 12.921 602.107 13.524 A 4.867 4.867 0 0 0 601.563 13.965 A 5.231 5.231 0 0 0 600.524 15.285 A 4.336 4.336 0 0 0 600 17.383 Q 600 19.336 601.563 20.801 A 5.195 5.195 0 0 0 603.867 22.033 Q 604.77 22.266 605.859 22.266 Z M 605.859 9.766 L 624.024 9.766 A 8.249 8.249 0 0 0 625.765 9.593 Q 626.913 9.345 627.776 8.742 A 4.867 4.867 0 0 0 628.32 8.301 A 5.231 5.231 0 0 0 629.359 6.981 A 4.336 4.336 0 0 0 629.883 4.883 Q 629.883 2.93 628.32 1.465 A 5.195 5.195 0 0 0 626.016 0.233 Q 625.113 0 624.024 0 L 605.859 0 A 8.249 8.249 0 0 0 604.118 0.173 Q 602.971 0.421 602.107 1.024 A 4.867 4.867 0 0 0 601.563 1.465 A 5.231 5.231 0 0 0 600.524 2.785 A 4.336 4.336 0 0 0 600 4.883 Q 600 6.836 601.563 8.301 A 5.195 5.195 0 0 0 603.867 9.533 Q 604.77 9.766 605.859 9.766 Z M 43.359 22.266 L 61.524 22.266 A 8.249 8.249 0 0 0 63.265 22.093 Q 64.413 21.845 65.276 21.242 A 4.867 4.867 0 0 0 65.82 20.801 A 5.231 5.231 0 0 0 66.859 19.481 A 4.336 4.336 0 0 0 67.383 17.383 Q 67.383 15.43 65.82 13.965 A 5.195 5.195 0 0 0 63.516 12.733 Q 62.613 12.5 61.524 12.5 L 43.359 12.5 A 8.249 8.249 0 0 0 41.618 12.673 Q 40.471 12.921 39.607 13.524 A 4.867 4.867 0 0 0 39.063 13.965 A 5.231 5.231 0 0 0 38.024 15.285 A 4.336 4.336 0 0 0 37.5 17.383 Q 37.5 19.336 39.063 20.801 A 5.195 5.195 0 0 0 41.367 22.033 Q 42.27 22.266 43.359 22.266 Z M 155.859 22.266 L 174.024 22.266 A 8.249 8.249 0 0 0 175.765 22.093 Q 176.913 21.845 177.776 21.242 A 4.867 4.867 0 0 0 178.32 20.801 A 5.231 5.231 0 0 0 179.359 19.481 A 4.336 4.336 0 0 0 179.883 17.383 Q 179.883 15.43 178.32 13.965 A 5.195 5.195 0 0 0 176.016 12.733 Q 175.113 12.5 174.024 12.5 L 155.859 12.5 A 8.249 8.249 0 0 0 154.118 12.673 Q 152.971 12.921 152.107 13.524 A 4.867 4.867 0 0 0 151.563 13.965 A 5.231 5.231 0 0 0 150.524 15.285 A 4.336 4.336 0 0 0 150 17.383 Q 150 19.336 151.563 20.801 A 5.195 5.195 0 0 0 153.867 22.033 Q 154.77 22.266 155.859 22.266 Z M 255.859 22.266 L 274.024 22.266 A 8.249 8.249 0 0 0 275.765 22.093 Q 276.913 21.845 277.776 21.242 A 4.867 4.867 0 0 0 278.32 20.801 A 5.231 5.231 0 0 0 279.359 19.481 A 4.336 4.336 0 0 0 279.883 17.383 Q 279.883 15.43 278.32 13.965 A 5.195 5.195 0 0 0 276.016 12.733 Q 275.113 12.5 274.024 12.5 L 255.859 12.5 A 8.249 8.249 0 0 0 254.118 12.673 Q 252.971 12.921 252.107 13.524 A 4.867 4.867 0 0 0 251.563 13.965 A 5.231 5.231 0 0 0 250.524 15.285 A 4.336 4.336 0 0 0 250 17.383 Q 250 19.336 251.563 20.801 A 5.195 5.195 0 0 0 253.867 22.033 Q 254.77 22.266 255.859 22.266 Z M 255.859 9.766 L 274.024 9.766 A 8.249 8.249 0 0 0 275.765 9.593 Q 276.913 9.345 277.776 8.742 A 4.867 4.867 0 0 0 278.32 8.301 A 5.231 5.231 0 0 0 279.359 6.981 A 4.336 4.336 0 0 0 279.883 4.883 Q 279.883 2.93 278.32 1.465 A 5.195 5.195 0 0 0 276.016 0.233 Q 275.113 0 274.024 0 L 255.859 0 A 8.249 8.249 0 0 0 254.118 0.173 Q 252.971 0.421 252.107 1.024 A 4.867 4.867 0 0 0 251.563 1.465 A 5.231 5.231 0 0 0 250.524 2.785 A 4.336 4.336 0 0 0 250 4.883 Q 250 6.836 251.563 8.301 A 5.195 5.195 0 0 0 253.867 9.533 Q 254.77 9.766 255.859 9.766 Z M 355.859 22.266 L 374.024 22.266 A 8.249 8.249 0 0 0 375.765 22.093 Q 376.913 21.845 377.776 21.242 A 4.867 4.867 0 0 0 378.32 20.801 A 5.231 5.231 0 0 0 379.359 19.481 A 4.336 4.336 0 0 0 379.883 17.383 Q 379.883 15.43 378.32 13.965 A 5.195 5.195 0 0 0 376.016 12.733 Q 375.113 12.5 374.024 12.5 L 355.859 12.5 A 8.249 8.249 0 0 0 354.118 12.673 Q 352.971 12.921 352.107 13.524 A 4.867 4.867 0 0 0 351.563 13.965 A 5.231 5.231 0 0 0 350.524 15.285 A 4.336 4.336 0 0 0 350 17.383 Q 350 19.336 351.563 20.801 A 5.195 5.195 0 0 0 353.867 22.033 Q 354.77 22.266 355.859 22.266 Z M 355.859 9.766 L 374.024 9.766 A 8.249 8.249 0 0 0 375.765 9.593 Q 376.913 9.345 377.776 8.742 A 4.867 4.867 0 0 0 378.32 8.301 A 5.231 5.231 0 0 0 379.359 6.981 A 4.336 4.336 0 0 0 379.883 4.883 Q 379.883 2.93 378.32 1.465 A 5.195 5.195 0 0 0 376.016 0.233 Q 375.113 0 374.024 0 L 355.859 0 A 8.249 8.249 0 0 0 354.118 0.173 Q 352.971 0.421 352.107 1.024 A 4.867 4.867 0 0 0 351.563 1.465 A 5.231 5.231 0 0 0 350.524 2.785 A 4.336 4.336 0 0 0 350 4.883 Q 350 6.836 351.563 8.301 A 5.195 5.195 0 0 0 353.867 9.533 Q 354.77 9.766 355.859 9.766 Z M 443.359 22.266 L 461.524 22.266 A 8.249 8.249 0 0 0 463.265 22.093 Q 464.413 21.845 465.276 21.242 A 4.867 4.867 0 0 0 465.82 20.801 A 5.231 5.231 0 0 0 466.859 19.481 A 4.336 4.336 0 0 0 467.383 17.383 Q 467.383 15.43 465.82 13.965 A 5.195 5.195 0 0 0 463.516 12.733 Q 462.613 12.5 461.524 12.5 L 443.359 12.5 A 8.249 8.249 0 0 0 441.618 12.673 Q 440.471 12.921 439.607 13.524 A 4.867 4.867 0 0 0 439.063 13.965 A 5.231 5.231 0 0 0 438.024 15.285 A 4.336 4.336 0 0 0 437.5 17.383 Q 437.5 19.336 439.063 20.801 A 5.195 5.195 0 0 0 441.367 22.033 Q 442.27 22.266 443.359 22.266 Z M 655.859 22.266 L 674.024 22.266 A 8.249 8.249 0 0 0 675.765 22.093 Q 676.913 21.845 677.776 21.242 A 4.867 4.867 0 0 0 678.32 20.801 A 5.231 5.231 0 0 0 679.359 19.481 A 4.336 4.336 0 0 0 679.883 17.383 Q 679.883 15.43 678.32 13.965 A 5.195 5.195 0 0 0 676.016 12.733 Q 675.113 12.5 674.024 12.5 L 655.859 12.5 A 8.249 8.249 0 0 0 654.118 12.673 Q 652.971 12.921 652.107 13.524 A 4.867 4.867 0 0 0 651.563 13.965 A 5.231 5.231 0 0 0 650.524 15.285 A 4.336 4.336 0 0 0 650 17.383 Q 650 19.336 651.563 20.801 A 5.195 5.195 0 0 0 653.867 22.033 Q 654.77 22.266 655.859 22.266 Z M 655.859 9.766 L 674.024 9.766 A 8.249 8.249 0 0 0 675.765 9.593 Q 676.913 9.345 677.776 8.742 A 4.867 4.867 0 0 0 678.32 8.301 A 5.231 5.231 0 0 0 679.359 6.981 A 4.336 4.336 0 0 0 679.883 4.883 Q 679.883 2.93 678.32 1.465 A 5.195 5.195 0 0 0 676.016 0.233 Q 675.113 0 674.024 0 L 655.859 0 A 8.249 8.249 0 0 0 654.118 0.173 Q 652.971 0.421 652.107 1.024 A 4.867 4.867 0 0 0 651.563 1.465 A 5.231 5.231 0 0 0 650.524 2.785 A 4.336 4.336 0 0 0 650 4.883 Q 650 6.836 651.563 8.301 A 5.195 5.195 0 0 0 653.867 9.533 Q 654.77 9.766 655.859 9.766 Z M 43.359 59.766 L 61.524 59.766 A 8.249 8.249 0 0 0 63.265 59.593 Q 64.413 59.345 65.276 58.742 A 4.867 4.867 0 0 0 65.82 58.301 A 5.231 5.231 0 0 0 66.859 56.981 A 4.336 4.336 0 0 0 67.383 54.883 Q 67.383 52.93 65.82 51.465 A 5.195 5.195 0 0 0 63.516 50.233 Q 62.613 50 61.524 50 L 43.359 50 A 8.249 8.249 0 0 0 41.618 50.173 Q 40.471 50.421 39.607 51.024 A 4.867 4.867 0 0 0 39.063 51.465 A 5.231 5.231 0 0 0 38.024 52.785 A 4.336 4.336 0 0 0 37.5 54.883 Q 37.5 56.836 39.063 58.301 A 5.195 5.195 0 0 0 41.367 59.533 Q 42.27 59.766 43.359 59.766 Z M 43.359 47.266 L 61.524 47.266 A 8.249 8.249 0 0 0 63.265 47.093 Q 64.413 46.845 65.276 46.242 A 4.867 4.867 0 0 0 65.82 45.801 A 5.231 5.231 0 0 0 66.859 44.481 A 4.336 4.336 0 0 0 67.383 42.383 Q 67.383 40.43 65.82 38.965 A 5.195 5.195 0 0 0 63.516 37.733 Q 62.613 37.5 61.524 37.5 L 43.359 37.5 A 8.249 8.249 0 0 0 41.618 37.673 Q 40.471 37.921 39.607 38.524 A 4.867 4.867 0 0 0 39.063 38.965 A 5.231 5.231 0 0 0 38.024 40.285 A 4.336 4.336 0 0 0 37.5 42.383 Q 37.5 44.336 39.063 45.801 A 5.195 5.195 0 0 0 41.367 47.033 Q 42.27 47.266 43.359 47.266 Z M 43.359 34.766 L 61.524 34.766 A 8.249 8.249 0 0 0 63.265 34.593 Q 64.413 34.345 65.276 33.742 A 4.867 4.867 0 0 0 65.82 33.301 A 5.231 5.231 0 0 0 66.859 31.981 A 4.336 4.336 0 0 0 67.383 29.883 Q 67.383 27.93 65.82 26.465 A 5.195 5.195 0 0 0 63.516 25.233 Q 62.613 25 61.524 25 L 43.359 25 A 8.249 8.249 0 0 0 41.618 25.173 Q 40.471 25.421 39.607 26.024 A 4.867 4.867 0 0 0 39.063 26.465 A 5.231 5.231 0 0 0 38.024 27.785 A 4.336 4.336 0 0 0 37.5 29.883 Q 37.5 31.836 39.063 33.301 A 5.195 5.195 0 0 0 41.367 34.533 Q 42.27 34.766 43.359 34.766 Z M 155.859 59.766 L 174.024 59.766 A 8.249 8.249 0 0 0 175.765 59.593 Q 176.913 59.345 177.776 58.742 A 4.867 4.867 0 0 0 178.32 58.301 A 5.231 5.231 0 0 0 179.359 56.981 A 4.336 4.336 0 0 0 179.883 54.883 Q 179.883 52.93 178.32 51.465 A 5.195 5.195 0 0 0 176.016 50.233 Q 175.113 50 174.024 50 L 155.859 50 A 8.249 8.249 0 0 0 154.118 50.173 Q 152.971 50.421 152.107 51.024 A 4.867 4.867 0 0 0 151.563 51.465 A 5.231 5.231 0 0 0 150.524 52.785 A 4.336 4.336 0 0 0 150 54.883 Q 150 56.836 151.563 58.301 A 5.195 5.195 0 0 0 153.867 59.533 Q 154.77 59.766 155.859 59.766 Z M 105.859 47.266 L 124.024 47.266 A 8.249 8.249 0 0 0 125.765 47.093 Q 126.913 46.845 127.776 46.242 A 4.867 4.867 0 0 0 128.32 45.801 A 5.231 5.231 0 0 0 129.359 44.481 A 4.336 4.336 0 0 0 129.883 42.383 Q 129.883 40.43 128.32 38.965 A 5.195 5.195 0 0 0 126.016 37.733 Q 125.113 37.5 124.024 37.5 L 105.859 37.5 A 8.249 8.249 0 0 0 104.118 37.673 Q 102.971 37.921 102.107 38.524 A 4.867 4.867 0 0 0 101.563 38.965 A 5.231 5.231 0 0 0 100.524 40.285 A 4.336 4.336 0 0 0 100 42.383 Q 100 44.336 101.563 45.801 A 5.195 5.195 0 0 0 103.867 47.033 Q 104.77 47.266 105.859 47.266 Z M 105.859 34.766 L 124.024 34.766 A 8.249 8.249 0 0 0 125.765 34.593 Q 126.913 34.345 127.776 33.742 A 4.867 4.867 0 0 0 128.32 33.301 A 5.231 5.231 0 0 0 129.359 31.981 A 4.336 4.336 0 0 0 129.883 29.883 Q 129.883 27.93 128.32 26.465 A 5.195 5.195 0 0 0 126.016 25.233 Q 125.113 25 124.024 25 L 105.859 25 A 8.249 8.249 0 0 0 104.118 25.173 Q 102.971 25.421 102.107 26.024 A 4.867 4.867 0 0 0 101.563 26.465 A 5.231 5.231 0 0 0 100.524 27.785 A 4.336 4.336 0 0 0 100 29.883 Q 100 31.836 101.563 33.301 A 5.195 5.195 0 0 0 103.867 34.533 Q 104.77 34.766 105.859 34.766 Z M 205.859 84.766 L 224.024 84.766 A 8.249 8.249 0 0 0 225.765 84.593 Q 226.913 84.345 227.776 83.742 A 4.867 4.867 0 0 0 228.32 83.301 A 5.231 5.231 0 0 0 229.359 81.981 A 4.336 4.336 0 0 0 229.883 79.883 Q 229.883 77.93 228.32 76.465 A 5.195 5.195 0 0 0 226.016 75.233 Q 225.113 75 224.024 75 L 205.859 75 A 8.249 8.249 0 0 0 204.118 75.173 Q 202.971 75.421 202.107 76.024 A 4.867 4.867 0 0 0 201.563 76.465 A 5.231 5.231 0 0 0 200.524 77.785 A 4.336 4.336 0 0 0 200 79.883 Q 200 81.836 201.563 83.301 A 5.195 5.195 0 0 0 203.867 84.533 Q 204.77 84.766 205.859 84.766 Z M 255.859 84.766 L 274.024 84.766 A 8.249 8.249 0 0 0 275.765 84.593 Q 276.913 84.345 277.776 83.742 A 4.867 4.867 0 0 0 278.32 83.301 A 5.231 5.231 0 0 0 279.359 81.981 A 4.336 4.336 0 0 0 279.883 79.883 Q 279.883 77.93 278.32 76.465 A 5.195 5.195 0 0 0 276.016 75.233 Q 275.113 75 274.024 75 L 255.859 75 A 8.249 8.249 0 0 0 254.118 75.173 Q 252.971 75.421 252.107 76.024 A 4.867 4.867 0 0 0 251.563 76.465 A 5.231 5.231 0 0 0 250.524 77.785 A 4.336 4.336 0 0 0 250 79.883 Q 250 81.836 251.563 83.301 A 5.195 5.195 0 0 0 253.867 84.533 Q 254.77 84.766 255.859 84.766 Z M 255.859 59.766 L 274.024 59.766 A 8.249 8.249 0 0 0 275.765 59.593 Q 276.913 59.345 277.776 58.742 A 4.867 4.867 0 0 0 278.32 58.301 A 5.231 5.231 0 0 0 279.359 56.981 A 4.336 4.336 0 0 0 279.883 54.883 Q 279.883 52.93 278.32 51.465 A 5.195 5.195 0 0 0 276.016 50.233 Q 275.113 50 274.024 50 L 255.859 50 A 8.249 8.249 0 0 0 254.118 50.173 Q 252.971 50.421 252.107 51.024 A 4.867 4.867 0 0 0 251.563 51.465 A 5.231 5.231 0 0 0 250.524 52.785 A 4.336 4.336 0 0 0 250 54.883 Q 250 56.836 251.563 58.301 A 5.195 5.195 0 0 0 253.867 59.533 Q 254.77 59.766 255.859 59.766 Z M 205.859 34.766 L 224.024 34.766 A 8.249 8.249 0 0 0 225.765 34.593 Q 226.913 34.345 227.776 33.742 A 4.867 4.867 0 0 0 228.32 33.301 A 5.231 5.231 0 0 0 229.359 31.981 A 4.336 4.336 0 0 0 229.883 29.883 Q 229.883 27.93 228.32 26.465 A 5.195 5.195 0 0 0 226.016 25.233 Q 225.113 25 224.024 25 L 205.859 25 A 8.249 8.249 0 0 0 204.118 25.173 Q 202.971 25.421 202.107 26.024 A 4.867 4.867 0 0 0 201.563 26.465 A 5.231 5.231 0 0 0 200.524 27.785 A 4.336 4.336 0 0 0 200 29.883 Q 200 31.836 201.563 33.301 A 5.195 5.195 0 0 0 203.867 34.533 Q 204.77 34.766 205.859 34.766 Z M 305.859 84.766 L 324.024 84.766 A 8.249 8.249 0 0 0 325.765 84.593 Q 326.913 84.345 327.776 83.742 A 4.867 4.867 0 0 0 328.32 83.301 A 5.231 5.231 0 0 0 329.359 81.981 A 4.336 4.336 0 0 0 329.883 79.883 Q 329.883 77.93 328.32 76.465 A 5.195 5.195 0 0 0 326.016 75.233 Q 325.113 75 324.024 75 L 305.859 75 A 8.249 8.249 0 0 0 304.118 75.173 Q 302.971 75.421 302.107 76.024 A 4.867 4.867 0 0 0 301.563 76.465 A 5.231 5.231 0 0 0 300.524 77.785 A 4.336 4.336 0 0 0 300 79.883 Q 300 81.836 301.563 83.301 A 5.195 5.195 0 0 0 303.867 84.533 Q 304.77 84.766 305.859 84.766 Z M 355.859 84.766 L 374.024 84.766 A 8.249 8.249 0 0 0 375.765 84.593 Q 376.913 84.345 377.776 83.742 A 4.867 4.867 0 0 0 378.32 83.301 A 5.231 5.231 0 0 0 379.359 81.981 A 4.336 4.336 0 0 0 379.883 79.883 Q 379.883 77.93 378.32 76.465 A 5.195 5.195 0 0 0 376.016 75.233 Q 375.113 75 374.024 75 L 355.859 75 A 8.249 8.249 0 0 0 354.118 75.173 Q 352.971 75.421 352.107 76.024 A 4.867 4.867 0 0 0 351.563 76.465 A 5.231 5.231 0 0 0 350.524 77.785 A 4.336 4.336 0 0 0 350 79.883 Q 350 81.836 351.563 83.301 A 5.195 5.195 0 0 0 353.867 84.533 Q 354.77 84.766 355.859 84.766 Z M 355.859 59.766 L 374.024 59.766 A 8.249 8.249 0 0 0 375.765 59.593 Q 376.913 59.345 377.776 58.742 A 4.867 4.867 0 0 0 378.32 58.301 A 5.231 5.231 0 0 0 379.359 56.981 A 4.336 4.336 0 0 0 379.883 54.883 Q 379.883 52.93 378.32 51.465 A 5.195 5.195 0 0 0 376.016 50.233 Q 375.113 50 374.024 50 L 355.859 50 A 8.249 8.249 0 0 0 354.118 50.173 Q 352.971 50.421 352.107 51.024 A 4.867 4.867 0 0 0 351.563 51.465 A 5.231 5.231 0 0 0 350.524 52.785 A 4.336 4.336 0 0 0 350 54.883 Q 350 56.836 351.563 58.301 A 5.195 5.195 0 0 0 353.867 59.533 Q 354.77 59.766 355.859 59.766 Z M 305.859 47.266 L 324.024 47.266 A 8.249 8.249 0 0 0 325.765 47.093 Q 326.913 46.845 327.776 46.242 A 4.867 4.867 0 0 0 328.32 45.801 A 5.231 5.231 0 0 0 329.359 44.481 A 4.336 4.336 0 0 0 329.883 42.383 Q 329.883 40.43 328.32 38.965 A 5.195 5.195 0 0 0 326.016 37.733 Q 325.113 37.5 324.024 37.5 L 305.859 37.5 A 8.249 8.249 0 0 0 304.118 37.673 Q 302.971 37.921 302.107 38.524 A 4.867 4.867 0 0 0 301.563 38.965 A 5.231 5.231 0 0 0 300.524 40.285 A 4.336 4.336 0 0 0 300 42.383 Q 300 44.336 301.563 45.801 A 5.195 5.195 0 0 0 303.867 47.033 Q 304.77 47.266 305.859 47.266 Z M 455.859 59.766 L 474.024 59.766 A 8.249 8.249 0 0 0 475.765 59.593 Q 476.913 59.345 477.776 58.742 A 4.867 4.867 0 0 0 478.32 58.301 A 5.231 5.231 0 0 0 479.359 56.981 A 4.336 4.336 0 0 0 479.883 54.883 Q 479.883 52.93 478.32 51.465 A 5.195 5.195 0 0 0 476.016 50.233 Q 475.113 50 474.024 50 L 455.859 50 A 8.249 8.249 0 0 0 454.118 50.173 Q 452.971 50.421 452.107 51.024 A 4.867 4.867 0 0 0 451.563 51.465 A 5.231 5.231 0 0 0 450.524 52.785 A 4.336 4.336 0 0 0 450 54.883 Q 450 56.836 451.563 58.301 A 5.195 5.195 0 0 0 453.867 59.533 Q 454.77 59.766 455.859 59.766 Z M 405.859 47.266 L 424.024 47.266 A 8.249 8.249 0 0 0 425.765 47.093 Q 426.913 46.845 427.776 46.242 A 4.867 4.867 0 0 0 428.32 45.801 A 5.231 5.231 0 0 0 429.359 44.481 A 4.336 4.336 0 0 0 429.883 42.383 Q 429.883 40.43 428.32 38.965 A 5.195 5.195 0 0 0 426.016 37.733 Q 425.113 37.5 424.024 37.5 L 405.859 37.5 A 8.249 8.249 0 0 0 404.118 37.673 Q 402.971 37.921 402.107 38.524 A 4.867 4.867 0 0 0 401.563 38.965 A 5.231 5.231 0 0 0 400.524 40.285 A 4.336 4.336 0 0 0 400 42.383 Q 400 44.336 401.563 45.801 A 5.195 5.195 0 0 0 403.867 47.033 Q 404.77 47.266 405.859 47.266 Z M 405.859 34.766 L 424.024 34.766 A 8.249 8.249 0 0 0 425.765 34.593 Q 426.913 34.345 427.776 33.742 A 4.867 4.867 0 0 0 428.32 33.301 A 5.231 5.231 0 0 0 429.359 31.981 A 4.336 4.336 0 0 0 429.883 29.883 Q 429.883 27.93 428.32 26.465 A 5.195 5.195 0 0 0 426.016 25.233 Q 425.113 25 424.024 25 L 405.859 25 A 8.249 8.249 0 0 0 404.118 25.173 Q 402.971 25.421 402.107 26.024 A 4.867 4.867 0 0 0 401.563 26.465 A 5.231 5.231 0 0 0 400.524 27.785 A 4.336 4.336 0 0 0 400 29.883 Q 400 31.836 401.563 33.301 A 5.195 5.195 0 0 0 403.867 34.533 Q 404.77 34.766 405.859 34.766 Z M 505.859 34.766 L 524.024 34.766 A 8.249 8.249 0 0 0 525.765 34.593 Q 526.913 34.345 527.776 33.742 A 4.867 4.867 0 0 0 528.32 33.301 A 5.231 5.231 0 0 0 529.359 31.981 A 4.336 4.336 0 0 0 529.883 29.883 Q 529.883 27.93 528.32 26.465 A 5.195 5.195 0 0 0 526.016 25.233 Q 525.113 25 524.024 25 L 505.859 25 A 8.249 8.249 0 0 0 504.118 25.173 Q 502.971 25.421 502.107 26.024 A 4.867 4.867 0 0 0 501.563 26.465 A 5.231 5.231 0 0 0 500.524 27.785 A 4.336 4.336 0 0 0 500 29.883 Q 500 31.836 501.563 33.301 A 5.195 5.195 0 0 0 503.867 34.533 Q 504.77 34.766 505.859 34.766 Z M 605.859 84.766 L 624.024 84.766 A 8.249 8.249 0 0 0 625.765 84.593 Q 626.913 84.345 627.776 83.742 A 4.867 4.867 0 0 0 628.32 83.301 A 5.231 5.231 0 0 0 629.359 81.981 A 4.336 4.336 0 0 0 629.883 79.883 Q 629.883 77.93 628.32 76.465 A 5.195 5.195 0 0 0 626.016 75.233 Q 625.113 75 624.024 75 L 605.859 75 A 8.249 8.249 0 0 0 604.118 75.173 Q 602.971 75.421 602.107 76.024 A 4.867 4.867 0 0 0 601.563 76.465 A 5.231 5.231 0 0 0 600.524 77.785 A 4.336 4.336 0 0 0 600 79.883 Q 600 81.836 601.563 83.301 A 5.195 5.195 0 0 0 603.867 84.533 Q 604.77 84.766 605.859 84.766 Z M 655.859 84.766 L 674.024 84.766 A 8.249 8.249 0 0 0 675.765 84.593 Q 676.913 84.345 677.776 83.742 A 4.867 4.867 0 0 0 678.32 83.301 A 5.231 5.231 0 0 0 679.359 81.981 A 4.336 4.336 0 0 0 679.883 79.883 Q 679.883 77.93 678.32 76.465 A 5.195 5.195 0 0 0 676.016 75.233 Q 675.113 75 674.024 75 L 655.859 75 A 8.249 8.249 0 0 0 654.118 75.173 Q 652.971 75.421 652.107 76.024 A 4.867 4.867 0 0 0 651.563 76.465 A 5.231 5.231 0 0 0 650.524 77.785 A 4.336 4.336 0 0 0 650 79.883 Q 650 81.836 651.563 83.301 A 5.195 5.195 0 0 0 653.867 84.533 Q 654.77 84.766 655.859 84.766 Z M 630.859 47.266 L 649.024 47.266 A 8.249 8.249 0 0 0 650.765 47.093 Q 651.913 46.845 652.776 46.242 A 4.867 4.867 0 0 0 653.32 45.801 A 5.231 5.231 0 0 0 654.359 44.481 A 4.336 4.336 0 0 0 654.883 42.383 Q 654.883 40.43 653.32 38.965 A 5.195 5.195 0 0 0 651.016 37.733 Q 650.113 37.5 649.024 37.5 L 630.859 37.5 A 8.249 8.249 0 0 0 629.118 37.673 Q 627.971 37.921 627.107 38.524 A 4.867 4.867 0 0 0 626.563 38.965 A 5.231 5.231 0 0 0 625.524 40.285 A 4.336 4.336 0 0 0 625 42.383 Q 625 44.336 626.563 45.801 A 5.195 5.195 0 0 0 628.867 47.033 Q 629.77 47.266 630.859 47.266 Z M 5.859 72.266 L 24.024 72.266 A 8.249 8.249 0 0 0 25.765 72.093 Q 26.913 71.845 27.776 71.242 A 4.867 4.867 0 0 0 28.32 70.801 A 5.231 5.231 0 0 0 29.359 69.481 A 4.336 4.336 0 0 0 29.883 67.383 Q 29.883 65.43 28.32 63.965 A 5.195 5.195 0 0 0 26.016 62.733 Q 25.113 62.5 24.024 62.5 L 5.859 62.5 A 8.249 8.249 0 0 0 4.118 62.673 Q 2.971 62.921 2.107 63.524 A 4.867 4.867 0 0 0 1.563 63.965 A 5.231 5.231 0 0 0 0.524 65.285 A 4.336 4.336 0 0 0 0 67.383 Q 0 69.336 1.563 70.801 A 5.195 5.195 0 0 0 3.867 72.033 Q 4.77 72.266 5.859 72.266 Z M 43.359 72.266 L 61.524 72.266 A 8.249 8.249 0 0 0 63.265 72.093 Q 64.413 71.845 65.276 71.242 A 4.867 4.867 0 0 0 65.82 70.801 A 5.231 5.231 0 0 0 66.859 69.481 A 4.336 4.336 0 0 0 67.383 67.383 Q 67.383 65.43 65.82 63.965 A 5.195 5.195 0 0 0 63.516 62.733 Q 62.613 62.5 61.524 62.5 L 43.359 62.5 A 8.249 8.249 0 0 0 41.618 62.673 Q 40.471 62.921 39.607 63.524 A 4.867 4.867 0 0 0 39.063 63.965 A 5.231 5.231 0 0 0 38.024 65.285 A 4.336 4.336 0 0 0 37.5 67.383 Q 37.5 69.336 39.063 70.801 A 5.195 5.195 0 0 0 41.367 72.033 Q 42.27 72.266 43.359 72.266 Z M 105.859 72.266 L 124.024 72.266 A 8.249 8.249 0 0 0 125.765 72.093 Q 126.913 71.845 127.776 71.242 A 4.867 4.867 0 0 0 128.32 70.801 A 5.231 5.231 0 0 0 129.359 69.481 A 4.336 4.336 0 0 0 129.883 67.383 Q 129.883 65.43 128.32 63.965 A 5.195 5.195 0 0 0 126.016 62.733 Q 125.113 62.5 124.024 62.5 L 105.859 62.5 A 8.249 8.249 0 0 0 104.118 62.673 Q 102.971 62.921 102.107 63.524 A 4.867 4.867 0 0 0 101.563 63.965 A 5.231 5.231 0 0 0 100.524 65.285 A 4.336 4.336 0 0 0 100 67.383 Q 100 69.336 101.563 70.801 A 5.195 5.195 0 0 0 103.867 72.033 Q 104.77 72.266 105.859 72.266 Z M 155.859 72.266 L 174.024 72.266 A 8.249 8.249 0 0 0 175.765 72.093 Q 176.913 71.845 177.776 71.242 A 4.867 4.867 0 0 0 178.32 70.801 A 5.231 5.231 0 0 0 179.359 69.481 A 4.336 4.336 0 0 0 179.883 67.383 Q 179.883 65.43 178.32 63.965 A 5.195 5.195 0 0 0 176.016 62.733 Q 175.113 62.5 174.024 62.5 L 155.859 62.5 A 8.249 8.249 0 0 0 154.118 62.673 Q 152.971 62.921 152.107 63.524 A 4.867 4.867 0 0 0 151.563 63.965 A 5.231 5.231 0 0 0 150.524 65.285 A 4.336 4.336 0 0 0 150 67.383 Q 150 69.336 151.563 70.801 A 5.195 5.195 0 0 0 153.867 72.033 Q 154.77 72.266 155.859 72.266 Z M 105.859 59.766 L 124.024 59.766 A 8.249 8.249 0 0 0 125.765 59.593 Q 126.913 59.345 127.776 58.742 A 4.867 4.867 0 0 0 128.32 58.301 A 5.231 5.231 0 0 0 129.359 56.981 A 4.336 4.336 0 0 0 129.883 54.883 Q 129.883 52.93 128.32 51.465 A 5.195 5.195 0 0 0 126.016 50.233 Q 125.113 50 124.024 50 L 105.859 50 A 8.249 8.249 0 0 0 104.118 50.173 Q 102.971 50.421 102.107 51.024 A 4.867 4.867 0 0 0 101.563 51.465 A 5.231 5.231 0 0 0 100.524 52.785 A 4.336 4.336 0 0 0 100 54.883 Q 100 56.836 101.563 58.301 A 5.195 5.195 0 0 0 103.867 59.533 Q 104.77 59.766 105.859 59.766 Z M 155.859 47.266 L 174.024 47.266 A 8.249 8.249 0 0 0 175.765 47.093 Q 176.913 46.845 177.776 46.242 A 4.867 4.867 0 0 0 178.32 45.801 A 5.231 5.231 0 0 0 179.359 44.481 A 4.336 4.336 0 0 0 179.883 42.383 Q 179.883 40.43 178.32 38.965 A 5.195 5.195 0 0 0 176.016 37.733 Q 175.113 37.5 174.024 37.5 L 155.859 37.5 A 8.249 8.249 0 0 0 154.118 37.673 Q 152.971 37.921 152.107 38.524 A 4.867 4.867 0 0 0 151.563 38.965 A 5.231 5.231 0 0 0 150.524 40.285 A 4.336 4.336 0 0 0 150 42.383 Q 150 44.336 151.563 45.801 A 5.195 5.195 0 0 0 153.867 47.033 Q 154.77 47.266 155.859 47.266 Z M 155.859 34.766 L 174.024 34.766 A 8.249 8.249 0 0 0 175.765 34.593 Q 176.913 34.345 177.776 33.742 A 4.867 4.867 0 0 0 178.32 33.301 A 5.231 5.231 0 0 0 179.359 31.981 A 4.336 4.336 0 0 0 179.883 29.883 Q 179.883 27.93 178.32 26.465 A 5.195 5.195 0 0 0 176.016 25.233 Q 175.113 25 174.024 25 L 155.859 25 A 8.249 8.249 0 0 0 154.118 25.173 Q 152.971 25.421 152.107 26.024 A 4.867 4.867 0 0 0 151.563 26.465 A 5.231 5.231 0 0 0 150.524 27.785 A 4.336 4.336 0 0 0 150 29.883 Q 150 31.836 151.563 33.301 A 5.195 5.195 0 0 0 153.867 34.533 Q 154.77 34.766 155.859 34.766 Z M 205.859 72.266 L 224.024 72.266 A 8.249 8.249 0 0 0 225.765 72.093 Q 226.913 71.845 227.776 71.242 A 4.867 4.867 0 0 0 228.32 70.801 A 5.231 5.231 0 0 0 229.359 69.481 A 4.336 4.336 0 0 0 229.883 67.383 Q 229.883 65.43 228.32 63.965 A 5.195 5.195 0 0 0 226.016 62.733 Q 225.113 62.5 224.024 62.5 L 205.859 62.5 A 8.249 8.249 0 0 0 204.118 62.673 Q 202.971 62.921 202.107 63.524 A 4.867 4.867 0 0 0 201.563 63.965 A 5.231 5.231 0 0 0 200.524 65.285 A 4.336 4.336 0 0 0 200 67.383 Q 200 69.336 201.563 70.801 A 5.195 5.195 0 0 0 203.867 72.033 Q 204.77 72.266 205.859 72.266 Z M 255.859 72.266 L 274.024 72.266 A 8.249 8.249 0 0 0 275.765 72.093 Q 276.913 71.845 277.776 71.242 A 4.867 4.867 0 0 0 278.32 70.801 A 5.231 5.231 0 0 0 279.359 69.481 A 4.336 4.336 0 0 0 279.883 67.383 Q 279.883 65.43 278.32 63.965 A 5.195 5.195 0 0 0 276.016 62.733 Q 275.113 62.5 274.024 62.5 L 255.859 62.5 A 8.249 8.249 0 0 0 254.118 62.673 Q 252.971 62.921 252.107 63.524 A 4.867 4.867 0 0 0 251.563 63.965 A 5.231 5.231 0 0 0 250.524 65.285 A 4.336 4.336 0 0 0 250 67.383 Q 250 69.336 251.563 70.801 A 5.195 5.195 0 0 0 253.867 72.033 Q 254.77 72.266 255.859 72.266 Z M 205.859 59.766 L 224.024 59.766 A 8.249 8.249 0 0 0 225.765 59.593 Q 226.913 59.345 227.776 58.742 A 4.867 4.867 0 0 0 228.32 58.301 A 5.231 5.231 0 0 0 229.359 56.981 A 4.336 4.336 0 0 0 229.883 54.883 Q 229.883 52.93 228.32 51.465 A 5.195 5.195 0 0 0 226.016 50.233 Q 225.113 50 224.024 50 L 205.859 50 A 8.249 8.249 0 0 0 204.118 50.173 Q 202.971 50.421 202.107 51.024 A 4.867 4.867 0 0 0 201.563 51.465 A 5.231 5.231 0 0 0 200.524 52.785 A 4.336 4.336 0 0 0 200 54.883 Q 200 56.836 201.563 58.301 A 5.195 5.195 0 0 0 203.867 59.533 Q 204.77 59.766 205.859 59.766 Z M 255.859 34.766 L 274.024 34.766 A 8.249 8.249 0 0 0 275.765 34.593 Q 276.913 34.345 277.776 33.742 A 4.867 4.867 0 0 0 278.32 33.301 A 5.231 5.231 0 0 0 279.359 31.981 A 4.336 4.336 0 0 0 279.883 29.883 Q 279.883 27.93 278.32 26.465 A 5.195 5.195 0 0 0 276.016 25.233 Q 275.113 25 274.024 25 L 255.859 25 A 8.249 8.249 0 0 0 254.118 25.173 Q 252.971 25.421 252.107 26.024 A 4.867 4.867 0 0 0 251.563 26.465 A 5.231 5.231 0 0 0 250.524 27.785 A 4.336 4.336 0 0 0 250 29.883 Q 250 31.836 251.563 33.301 A 5.195 5.195 0 0 0 253.867 34.533 Q 254.77 34.766 255.859 34.766 Z M 305.859 72.266 L 324.024 72.266 A 8.249 8.249 0 0 0 325.765 72.093 Q 326.913 71.845 327.776 71.242 A 4.867 4.867 0 0 0 328.32 70.801 A 5.231 5.231 0 0 0 329.359 69.481 A 4.336 4.336 0 0 0 329.883 67.383 Q 329.883 65.43 328.32 63.965 A 5.195 5.195 0 0 0 326.016 62.733 Q 325.113 62.5 324.024 62.5 L 305.859 62.5 A 8.249 8.249 0 0 0 304.118 62.673 Q 302.971 62.921 302.107 63.524 A 4.867 4.867 0 0 0 301.563 63.965 A 5.231 5.231 0 0 0 300.524 65.285 A 4.336 4.336 0 0 0 300 67.383 Q 300 69.336 301.563 70.801 A 5.195 5.195 0 0 0 303.867 72.033 Q 304.77 72.266 305.859 72.266 Z M 355.859 72.266 L 374.024 72.266 A 8.249 8.249 0 0 0 375.765 72.093 Q 376.913 71.845 377.776 71.242 A 4.867 4.867 0 0 0 378.32 70.801 A 5.231 5.231 0 0 0 379.359 69.481 A 4.336 4.336 0 0 0 379.883 67.383 Q 379.883 65.43 378.32 63.965 A 5.195 5.195 0 0 0 376.016 62.733 Q 375.113 62.5 374.024 62.5 L 355.859 62.5 A 8.249 8.249 0 0 0 354.118 62.673 Q 352.971 62.921 352.107 63.524 A 4.867 4.867 0 0 0 351.563 63.965 A 5.231 5.231 0 0 0 350.524 65.285 A 4.336 4.336 0 0 0 350 67.383 Q 350 69.336 351.563 70.801 A 5.195 5.195 0 0 0 353.867 72.033 Q 354.77 72.266 355.859 72.266 Z M 305.859 59.766 L 324.024 59.766 A 8.249 8.249 0 0 0 325.765 59.593 Q 326.913 59.345 327.776 58.742 A 4.867 4.867 0 0 0 328.32 58.301 A 5.231 5.231 0 0 0 329.359 56.981 A 4.336 4.336 0 0 0 329.883 54.883 Q 329.883 52.93 328.32 51.465 A 5.195 5.195 0 0 0 326.016 50.233 Q 325.113 50 324.024 50 L 305.859 50 A 8.249 8.249 0 0 0 304.118 50.173 Q 302.971 50.421 302.107 51.024 A 4.867 4.867 0 0 0 301.563 51.465 A 5.231 5.231 0 0 0 300.524 52.785 A 4.336 4.336 0 0 0 300 54.883 Q 300 56.836 301.563 58.301 A 5.195 5.195 0 0 0 303.867 59.533 Q 304.77 59.766 305.859 59.766 Z M 405.859 72.266 L 424.024 72.266 A 8.249 8.249 0 0 0 425.765 72.093 Q 426.913 71.845 427.776 71.242 A 4.867 4.867 0 0 0 428.32 70.801 A 5.231 5.231 0 0 0 429.359 69.481 A 4.336 4.336 0 0 0 429.883 67.383 Q 429.883 65.43 428.32 63.965 A 5.195 5.195 0 0 0 426.016 62.733 Q 425.113 62.5 424.024 62.5 L 405.859 62.5 A 8.249 8.249 0 0 0 404.118 62.673 Q 402.971 62.921 402.107 63.524 A 4.867 4.867 0 0 0 401.563 63.965 A 5.231 5.231 0 0 0 400.524 65.285 A 4.336 4.336 0 0 0 400 67.383 Q 400 69.336 401.563 70.801 A 5.195 5.195 0 0 0 403.867 72.033 Q 404.77 72.266 405.859 72.266 Z M 443.359 72.266 L 461.524 72.266 A 8.249 8.249 0 0 0 463.265 72.093 Q 464.413 71.845 465.276 71.242 A 4.867 4.867 0 0 0 465.82 70.801 A 5.231 5.231 0 0 0 466.859 69.481 A 4.336 4.336 0 0 0 467.383 67.383 Q 467.383 65.43 465.82 63.965 A 5.195 5.195 0 0 0 463.516 62.733 Q 462.613 62.5 461.524 62.5 L 443.359 62.5 A 8.249 8.249 0 0 0 441.618 62.673 Q 440.471 62.921 439.607 63.524 A 4.867 4.867 0 0 0 439.063 63.965 A 5.231 5.231 0 0 0 438.024 65.285 A 4.336 4.336 0 0 0 437.5 67.383 Q 437.5 69.336 439.063 70.801 A 5.195 5.195 0 0 0 441.367 72.033 Q 442.27 72.266 443.359 72.266 Z M 405.859 59.766 L 424.024 59.766 A 8.249 8.249 0 0 0 425.765 59.593 Q 426.913 59.345 427.776 58.742 A 4.867 4.867 0 0 0 428.32 58.301 A 5.231 5.231 0 0 0 429.359 56.981 A 4.336 4.336 0 0 0 429.883 54.883 Q 429.883 52.93 428.32 51.465 A 5.195 5.195 0 0 0 426.016 50.233 Q 425.113 50 424.024 50 L 405.859 50 A 8.249 8.249 0 0 0 404.118 50.173 Q 402.971 50.421 402.107 51.024 A 4.867 4.867 0 0 0 401.563 51.465 A 5.231 5.231 0 0 0 400.524 52.785 A 4.336 4.336 0 0 0 400 54.883 Q 400 56.836 401.563 58.301 A 5.195 5.195 0 0 0 403.867 59.533 Q 404.77 59.766 405.859 59.766 Z M 455.859 47.266 L 474.024 47.266 A 8.249 8.249 0 0 0 475.765 47.093 Q 476.913 46.845 477.776 46.242 A 4.867 4.867 0 0 0 478.32 45.801 A 5.231 5.231 0 0 0 479.359 44.481 A 4.336 4.336 0 0 0 479.883 42.383 Q 479.883 40.43 478.32 38.965 A 5.195 5.195 0 0 0 476.016 37.733 Q 475.113 37.5 474.024 37.5 L 455.859 37.5 A 8.249 8.249 0 0 0 454.118 37.673 Q 452.971 37.921 452.107 38.524 A 4.867 4.867 0 0 0 451.563 38.965 A 5.231 5.231 0 0 0 450.524 40.285 A 4.336 4.336 0 0 0 450 42.383 Q 450 44.336 451.563 45.801 A 5.195 5.195 0 0 0 453.867 47.033 Q 454.77 47.266 455.859 47.266 Z M 455.859 34.766 L 474.024 34.766 A 8.249 8.249 0 0 0 475.765 34.593 Q 476.913 34.345 477.776 33.742 A 4.867 4.867 0 0 0 478.32 33.301 A 5.231 5.231 0 0 0 479.359 31.981 A 4.336 4.336 0 0 0 479.883 29.883 Q 479.883 27.93 478.32 26.465 A 5.195 5.195 0 0 0 476.016 25.233 Q 475.113 25 474.024 25 L 455.859 25 A 8.249 8.249 0 0 0 454.118 25.173 Q 452.971 25.421 452.107 26.024 A 4.867 4.867 0 0 0 451.563 26.465 A 5.231 5.231 0 0 0 450.524 27.785 A 4.336 4.336 0 0 0 450 29.883 Q 450 31.836 451.563 33.301 A 5.195 5.195 0 0 0 453.867 34.533 Q 454.77 34.766 455.859 34.766 Z M 505.859 72.266 L 524.024 72.266 A 8.249 8.249 0 0 0 525.765 72.093 Q 526.913 71.845 527.776 71.242 A 4.867 4.867 0 0 0 528.32 70.801 A 5.231 5.231 0 0 0 529.359 69.481 A 4.336 4.336 0 0 0 529.883 67.383 Q 529.883 65.43 528.32 63.965 A 5.195 5.195 0 0 0 526.016 62.733 Q 525.113 62.5 524.024 62.5 L 505.859 62.5 A 8.249 8.249 0 0 0 504.118 62.673 Q 502.971 62.921 502.107 63.524 A 4.867 4.867 0 0 0 501.563 63.965 A 5.231 5.231 0 0 0 500.524 65.285 A 4.336 4.336 0 0 0 500 67.383 Q 500 69.336 501.563 70.801 A 5.195 5.195 0 0 0 503.867 72.033 Q 504.77 72.266 505.859 72.266 Z M 505.859 59.766 L 524.024 59.766 A 8.249 8.249 0 0 0 525.765 59.593 Q 526.913 59.345 527.776 58.742 A 4.867 4.867 0 0 0 528.32 58.301 A 5.231 5.231 0 0 0 529.359 56.981 A 4.336 4.336 0 0 0 529.883 54.883 Q 529.883 52.93 528.32 51.465 A 5.195 5.195 0 0 0 526.016 50.233 Q 525.113 50 524.024 50 L 505.859 50 A 8.249 8.249 0 0 0 504.118 50.173 Q 502.971 50.421 502.107 51.024 A 4.867 4.867 0 0 0 501.563 51.465 A 5.231 5.231 0 0 0 500.524 52.785 A 4.336 4.336 0 0 0 500 54.883 Q 500 56.836 501.563 58.301 A 5.195 5.195 0 0 0 503.867 59.533 Q 504.77 59.766 505.859 59.766 Z M 605.859 72.266 L 624.024 72.266 A 8.249 8.249 0 0 0 625.765 72.093 Q 626.913 71.845 627.776 71.242 A 4.867 4.867 0 0 0 628.32 70.801 A 5.231 5.231 0 0 0 629.359 69.481 A 4.336 4.336 0 0 0 629.883 67.383 Q 629.883 65.43 628.32 63.965 A 5.195 5.195 0 0 0 626.016 62.733 Q 625.113 62.5 624.024 62.5 L 605.859 62.5 A 8.249 8.249 0 0 0 604.118 62.673 Q 602.971 62.921 602.107 63.524 A 4.867 4.867 0 0 0 601.563 63.965 A 5.231 5.231 0 0 0 600.524 65.285 A 4.336 4.336 0 0 0 600 67.383 Q 600 69.336 601.563 70.801 A 5.195 5.195 0 0 0 603.867 72.033 Q 604.77 72.266 605.859 72.266 Z M 655.859 72.266 L 674.024 72.266 A 8.249 8.249 0 0 0 675.765 72.093 Q 676.913 71.845 677.776 71.242 A 4.867 4.867 0 0 0 678.32 70.801 A 5.231 5.231 0 0 0 679.359 69.481 A 4.336 4.336 0 0 0 679.883 67.383 Q 679.883 65.43 678.32 63.965 A 5.195 5.195 0 0 0 676.016 62.733 Q 675.113 62.5 674.024 62.5 L 655.859 62.5 A 8.249 8.249 0 0 0 654.118 62.673 Q 652.971 62.921 652.107 63.524 A 4.867 4.867 0 0 0 651.563 63.965 A 5.231 5.231 0 0 0 650.524 65.285 A 4.336 4.336 0 0 0 650 67.383 Q 650 69.336 651.563 70.801 A 5.195 5.195 0 0 0 653.867 72.033 Q 654.77 72.266 655.859 72.266 Z" vector-effect="non-scaling-stroke"/></g></svg>